<svg xmlns="http://www.w3.org/2000/svg" viewBox="0 0 32 32" width="32" height="32">
  <!-- Background circle with autumn colors -->
  <circle cx="16" cy="16" r="15" fill="#E07B39" stroke="#F4A259" stroke-width="1"/>
  
  <!-- Snoopy's head -->
  <ellipse cx="16" cy="18" rx="8" ry="6" fill="white"/>
  
  <!-- Snoopy's ears -->
  <ellipse cx="12" cy="12" rx="2.5" ry="3" fill="white" transform="rotate(-20 12 12)"/>
  <ellipse cx="20" cy="12" rx="2.5" ry="3" fill="white" transform="rotate(20 20 12)"/>
  
  <!-- Inner ears -->
  <ellipse cx="12" cy="12" rx="1.5" ry="2" fill="#FFB6C1" transform="rotate(-20 12 12)"/>
  <ellipse cx="20" cy="12" rx="1.5" ry="2" fill="#FFB6C1" transform="rotate(20 20 12)"/>
  
  <!-- Snoopy's nose -->
  <ellipse cx="16" cy="20" rx="1" ry="0.8" fill="black"/>
  
  <!-- Snoopy's eyes -->
  <circle cx="14" cy="16" r="1" fill="black"/>
  <circle cx="18" cy="16" r="1" fill="black"/>
  
  <!-- Eye highlights -->
  <circle cx="14.3" cy="15.7" r="0.3" fill="white"/>
  <circle cx="18.3" cy="15.7" r="0.3" fill="white"/>
  
  <!-- Autumn leaf on head -->
  <path d="M16 8 L18 6 L20 8 L18 10 Z" fill="#8B2635" transform="rotate(45 18 8)"/>
  
  <!-- Small autumn details -->
  <circle cx="8" cy="24" r="1" fill="#F4A259" opacity="0.7"/>
  <circle cx="24" cy="20" r="0.8" fill="#8B2635" opacity="0.7"/>
  <circle cx="6" cy="18" r="0.6" fill="#E07B39" opacity="0.7"/>
</svg>
